<svg xmlns="http://www.w3.org/2000/svg" viewBox="0 0 800 200" style="enable-background:new 0 0 800 200;" width="800" height="200">
  <style type="text/css">
    .nameplate-color {
      fill: #fff;
    }
  </style>
  <path class="nameplate-color" d="M2.6 123c.9-.6 1.7-.9 2.4-.9 2.2 0 4.7 1.3 7.5 3.8.5.4.8.7 1.1.9l.4.4c1.1 1 2.3 1.4 3.6 1.4 1.8 0 3.6-.6 5.5-1.9 1.8-1.2 3.3-3 4.4-5.2 1.5-3.1 2.6-6.5 3.3-10.3.7-3.8 1-8.5 1-13.9l-.1-11.2.1-7.7c0-5.2-.2-13.3-.6-24.1l-.4-26.9.1-13.9c0-1.2-.2-2.3-.6-3.2-.3-.5-.8-.9-1.5-1.3s-1.8-.6-3.2-.6L20.2 8c-1.7 0-2.8-.2-3.4-.5-.2-.7-.3-1.3-.3-1.7V5c1.1 0 2.3 0 3.9.1 3 .1 5.9.2 8.7.2 1.3 0 3.1 0 5.3-.1 1.7-.1 2.8-.1 3.5-.1h10.6c1.5 0 3.1.1 4.8.2 0 1.1 0 2-.1 2.6-4.1.2-6.7.5-7.8.9-1.1.4-1.9.9-2.4 1.6-.3.4-.5 1.3-.5 2.5l-.3 7.5.1 1.8c.1.9.1 2.5.1 5V30c0 1.7 0 3.2.1 4.5.1 1.9.1 3.1.1 3.4 0 .4 0 1.6-.1 3.4 0 .5-.1 1-.1 1.4l.9 20-.3 12.8v8.3c0 4.8-.9 11.5-2.7 20-1.3 6.2-3.8 11.9-7.3 17s-6.9 8.6-10.3 10.4c-3.4 1.9-7.9 2.8-13.6 2.8-3 0-5.4-.7-7.3-2.2-1.2-1-1.9-2.3-1.9-4 .1-1.9 1-3.6 2.7-4.8zM62.2 68c0-3.3.7-6.7 2-10.4 1.4-3.7 3.4-7 6.2-10 2.8-2.9 5.7-5.1 8.8-6.6 4.4-2 9.7-3 15.9-3 9 0 16.4 3.1 22.4 9.2s9 13.5 9 22.1c0 7.7-3.1 14.5-9.4 20.5-6.3 6-14.3 9-23.9 9-5.9 0-11.5-1.6-16.8-4.7-3.9-2.3-7.3-5.8-10.1-10.4-2.7-4.6-4.1-9.8-4.1-15.7zM94 96c3.6 0 7.2-1 10.5-2.9 3.4-2 6.1-5.1 8.1-9.4 2-4.3 3-9.3 3-15 0-3.7-.8-8.1-2.3-13-1.6-4.9-4-8.6-7.2-11.1s-7-3.7-11.4-3.7c-3.2 0-6.4.7-9.7 2.2-3.3 1.5-6.1 4.3-8.3 8.5-2.3 4.2-3.4 10.2-3.4 18 0 8.7 2 15.3 5.9 19.8C83.1 93.8 88.1 96 94 96zM142.3 78.6c1.8 4.5 3.1 7.5 4 8.8 1.8 2.7 4 4.8 6.5 6.4 2.5 1.5 5.3 2.3 8.3 2.3 2.7 0 5.4-1.2 8.1-3.5 1.9-1.8 2.9-3.8 2.9-6.2 0-3.1-1.1-6-3.4-8.6-2.3-2.6-6.5-5.1-12.8-7.4-6.3-2.4-10.5-4.9-12.7-7.6-2.2-2.7-3.2-5.7-3.2-9.2 0-3.3.9-6.1 2.7-8.6 1.8-2.5 4.2-4.4 7.3-5.6 3.1-1.3 6-1.9 8.6-1.9 3.4 0 6.5.3 9.2.8 2.7.5 5 1.3 7 2.4.4 2.4.7 6 .9 10.8l.1 2.3c-.6 0-1.1.1-1.6.1h-1c-1.4-4-3.6-7.1-6.6-9.4-2.9-2.3-5.9-3.5-8.7-3.5-2.9 0-5.2.9-7 2.6-1.8 1.7-2.7 4-2.7 6.9 0 2.2.7 4.1 2.2 5.7 1.4 1.7 4.8 3.6 10.1 5.7s9.1 4.1 11.6 6c2.4 1.8 4.2 4.1 5.3 6.7 1.1 2.6 1.7 5.2 1.7 7.5 0 3.3-1.1 6.4-3.3 9.3-2.2 2.9-4.9 4.9-8.2 6.1-3.3 1.2-6.2 1.8-8.8 1.8-6.1 0-11.7-1.1-16.8-3.4-.5-.4-.7-1.1-.8-2.2 0-.4 0-1.1-.1-2.1-.8-6.5-1.1-10.3-1.1-11.5 0-.6.1-1 .4-1.1.3-.3.9-.4 1.9-.4zM242.5 59l-28.8.2h-5.5c-2.2 0-4.5.1-6.7.3-.4 1.4-.6 2.4-.6 2.9l.1.7v.7l-.1 3.5c0 2.9.9 6.5 2.8 10.7 1.8 4.2 4.5 7.5 7.9 9.7 3.4 2.2 7.7 3.4 12.8 3.6 2.7-.1 4.9-.5 6.5-1 1.6-.5 3.9-1.7 6.9-3.7l5.2-4.2.4 2.9c0 .3 0 .7-.1 1.1-2.2 2.7-4.9 5.1-8.2 7.2-3.3 2.1-6.7 3.6-10.1 4.5-1.6.4-4.3.6-8 .6-3.4 0-6.7-.7-10.1-2.1-4.9-2.1-8.7-5.5-11.5-10.2-2.8-4.7-4.2-10.3-4.2-17 0-2.1.4-4.8 1.2-8.1.8-3.3 2.2-6.8 4.3-10.6 1.4-2.5 3.1-4.6 5.1-6.2 2.9-2.3 5.4-3.9 7.5-4.8 3.1-1.3 6.7-1.9 10.8-1.9 4.5 0 8.1.8 10.9 2.4 3.8 2.2 6.7 4.9 8.6 8.3 1.9 3.4 2.8 6.5 2.8 9.3V59zm-40.1-2.6h3.4c2.4 0 9.7-.4 21.8-1.1 1.9-.1 3.1-.3 3.5-.6.9-.9 1.3-1.7 1.3-2.4 0-1.5-.5-3.2-1.4-5.1-1-1.9-2.4-3.4-4.4-4.4-2-1-4.3-1.5-6.9-1.5-5.6 0-10 2.1-13.4 6.2-2.6 3.1-3.9 6.1-3.9 8.9zM250.4 134.4c0-.5-.1-1-.1-1.5 0-.3 0-.8.1-1.3l7.2-1.4c1.2-.6 2.1-1.3 2.8-2.1.2-.9.4-1.7.4-2.6 0-7.4-.2-21.4-.6-42.1l-.2-26.3c-.1-4.2-.4-6.8-.8-7.9-.2-.6-.6-1-1.1-1.4-1.2-.9-3.6-1.7-7.2-2.3l.4-2.2c5.2-2.2 8.6-3.9 10.4-5.2 1.7-1.2 3.4-2.9 5-5.2l.9-.2c.3 0 .8.1 1.4.4 0 3-.1 5-.1 6l.1 7.9c3.5-2.7 7.2-4.7 11.1-6 3.8-1.3 7.8-2 11.9-2 7.4 0 13.6 2.6 18.7 7.8 5.1 5.2 7.6 11.9 7.6 20.1 0 6.1-1.4 11.5-4.3 16.4-2.9 4.8-6.8 8.4-11.8 10.8-5 2.4-10.1 3.6-15.1 3.6-4.3 0-9.3-1.2-14.8-3.5-.9-.4-1.7-.7-2.4-1-.1 3.8-.1 7.2-.1 10.2 0 14.8.4 23.1 1.2 24.9.4 1 1.8 1.5 4 1.7 3.8.3 6.4.8 7.7 1.7.7.4 1.2 1.3 1.4 2.6l-7.1.1-6.5-.1-10.8.1h-9.3zm18.8-82.2c-.1.7-.1 1.3-.1 1.9 0 17.1.2 26.7.5 28.7.7 3.8 2 6.4 4 8 3.1 2.4 7.6 3.7 13.4 3.7 6 0 11-2.1 15.2-6.2 4.1-4.1 6.2-9.5 6.2-16.1 0-7.9-2.2-14.2-6.5-18.9-4.4-4.6-10.1-7-17.2-7-3 0-5.8.5-8.3 1.5-2.8.9-5.1 2.4-7.2 4.4zM326.5 95.1c5.6-1 8.8-1.8 9.7-2.3.5-.3.8-1.1.8-2.3l-.1-4.7.1-8.4-.2-21.4.1-8v-5.7l.2-7c0-10.9-.1-17.4-.3-19.6-.2-2.1-.6-3.5-1.3-4-1.1-1.1-4.3-2.2-9.5-3.4V8c0-.3 0-.8.1-1.4.7-.1 1.3-.2 1.9-.4l1.8-.3c5.7-1.6 9.8-3.2 12.4-4.7h3.5c.1 1.3.1 5.6.1 12.7l-.1 9.1.1 11.8-.3 14.5c0 .9 0 1.8.1 2.9 3-3.5 5.2-5.8 6.6-7 2.5-2 5.2-3.6 8-4.8 2.8-1.2 5.8-1.8 8.9-1.8 5.9 0 10.7 2.5 14.5 7.5 2.2 2.9 3.2 7.1 3.2 12.4l-.2 7.3.4 4.2-.3 7.1c-.2 5.9-.3 9.4-.3 10.5 0 1.2 0 2.9.1 5l4.1.9c2.7.6 4.8 1.1 6.3 1.6l-.1 2.2-15.3-.4c-.9 0-3.2.1-7 .3-2.3.1-3.7.1-4.1.1h-1.6c-.2-.4-.4-.8-.4-1.1v-.6c.7-.9 1.9-1.4 3.7-1.7l4.3-1c.6-.5.9-1 1-1.5.2-1.2.4-7.4.6-18.5l.1-5.3c.2-5.6-.2-10.2-1.3-13.9-.7-2.5-2.2-4.6-4.6-6.1-2.4-1.5-5.1-2.3-8.2-2.3-2.6 0-5 .5-7.3 1.6-1.6.8-3.5 2.2-5.7 4.2s-3.7 3.7-4.6 5.2c-.6 1-.9 2.5-.9 4.7l.1 5-.1 5.2c0 .4.1 3.4.2 8.9l-.1 4.6.1 5c0 .7.1 1.2.2 1.6l10.1 2.4c.5.1 1.3.4 2.4.9l.2.8c0 .2-.1.6-.4 1.2-1.4 0-2.4.1-3.2.1l-5.6-.1-12.4.1-9.3.3c-.5 0-1.2-.1-2.2-.1l-.1-.5c.5-.3.7-.8 1.1-1.3zM434.1 7.8l-.1-1.1c.7-.9 2.6-1.3 5.7-1.3l6.7.1 3.9.1 1.7-.1c6.3 0 10 .1 11.3.3 0 .6.1 1 .1 1.3 0 .4 0 1.1-.1 1.9l-6.8.3c-.3 0-.8.2-1.4.4-.2.5-.3.8-.3 1.1 0 .3.1.7.4 1.4.4.8.7 1.7 1.1 2.6l4.5 12.6 10.8 27c1.2 3.3 2.1 5.4 2.5 6.4 1.3 3 3 7.2 5.1 12.6.7 1.9 2.4 5.9 5.2 12.1.1.4.4 1 .9 1.9 2.2-3.5 5.3-9.6 9.5-18.3 3.3-6.7 5.3-11.3 6.1-13.9l-.6-1.4-12.3-28c-1.6-3.5-2.9-6.3-3.8-8.3-1.9-4.3-3.2-6.8-4.1-7.4-.9-.6-3.4-1.1-7.6-1.3l-1.5-.3c-.4-.4-.6-.9-.6-1.5.1-.4.3-.7.6-1 1.5 0 2.6-.1 3.2-.1l4.5.1 2.3-.1h3.9l3.5-.1h3.7l6.7-.4c.4 0 1.1 0 1.9.1l1.1-.1c.7 0 1.2.2 1.5.5.3.3.5.7.5 1 0 .3-.1.7-.3 1.1-.8.3-2.1.5-4.1.7-2.8.3-4.5.6-4.9.9-.5.3-.7.7-.7 1.1 0 .9 1.8 5.7 5.5 14.4l7.3 16.6c2.2-4.4 5.3-11.3 9.2-20.8 1.6-3.9 2.4-6.8 2.4-8.7 0-1-.4-1.9-1.2-2.7-.6-.6-2-1-4.2-1.1l-1.5-.2-1.3-.6.2-.6c0-.3.1-.7.4-1.2.5-.4.9-.6 1.3-.6.7-.1 4 0 10 .4h4.9l3 .1 5-.1c.4 0 1 .2 1.7.4.4.4.6.7.6 1.1 0 .5-.2 1-.6 1.3-.4.3-1.3.6-2.8.9-3.6.6-6.4 1.6-8.2 2.9-1.2.9-2.3 2.2-3.2 3.9L517 27.5c-1.2 3.5-2.3 6.2-3.1 8-.3 1.1-1 2.6-1.9 4.4l-2.9 6.8c.5 1.2 1.4 3.3 2.7 6l7.4 17.2c.3.8 1.3 2.9 3 6.4 1.7 3.5 3 6.7 4.1 9.7l1.1-3.4.1-.4 4.4-11.4c1.5-3.5 3.1-7.2 4.6-11.1l5.5-13.9 8.3-23.7c.9-2.7 1.6-5.4 2.1-7.9l.2-1.1c.1-.5.2-.9.2-1.1 0-.7-.3-1.3-1-1.8s-3-1.3-7.1-2.3c-.4-.1-.8-.4-1.1-.6-.1-.6-.2-1-.2-1.4l.1-.5c2-.1 3.3-.1 3.8-.1l5.5.1 6.2-.1h5.4l2.2.1.1.7c0 .3 0 .8-.1 1.5-3.5 1.3-5.6 2.3-6.4 2.9-.8.6-1.5 1.2-1.9 1.9-.5.7-1.3 2.5-2.6 5.5-.1.3-1.6 4.6-4.5 12.9-.6 1.2-1.3 2.9-1.9 5-.2.6-.6 1.6-1.2 3.1l-1.1 2.9-.8 2.1c-3.2 8.7-6.6 17.8-10.4 27.4l-7.7 21.5-3.1 8.2c-.7.1-1.3.1-1.7.1-.3 0-.8 0-1.4-.1-.6-1.8-2-5.1-4.1-10.1-5.5-12.5-10.4-23-14.8-31.2l-.9 1.4c-2.4 4.6-5.4 10.8-8.8 18.5l-5.6 11.3c-2.3 4.8-4.2 8.2-5.6 10.1l-3.3.1L467 72.5 457.4 50 449 28.5c-.6-1.4-1.1-2.7-1.5-3.9-.3-.9-.6-1.8-.9-2.8-.5-1.5-1.8-4.9-4-10.1-.9-1.4-2.2-2.3-4.2-2.7-1.9-.4-3.3-.8-4.3-1.2zM610.5 59l-28.8.2h-5.5c-2.2 0-4.5.1-6.7.3-.4 1.4-.6 2.4-.6 2.9l.1.7v.7l-.1 3.5c0 2.9.9 6.5 2.8 10.7s4.5 7.5 7.9 9.7 7.7 3.4 12.8 3.6c2.7-.1 4.9-.5 6.5-1 1.6-.5 3.9-1.7 6.9-3.7l5.2-4.2.4 2.9c0 .3 0 .7-.1 1.1-2.2 2.7-4.9 5.1-8.2 7.2-3.3 2.1-6.7 3.6-10.1 4.5-1.6.4-4.3.6-8 .6-3.4 0-6.7-.7-10.1-2.1-4.9-2.1-8.7-5.5-11.5-10.2-2.8-4.7-4.2-10.3-4.2-17 0-2.1.4-4.8 1.2-8.1.8-3.3 2.2-6.8 4.3-10.6 1.4-2.5 3.1-4.6 5.1-6.2 2.9-2.3 5.4-3.9 7.5-4.8 3.1-1.3 6.7-1.9 10.8-1.9 4.5 0 8.1.8 10.9 2.4 3.8 2.2 6.7 4.9 8.6 8.3 1.9 3.4 2.8 6.5 2.8 9.3V59zm-40.1-2.6h3.4c2.4 0 9.7-.4 21.8-1.1 1.9-.1 3.1-.3 3.5-.6.9-.9 1.3-1.7 1.3-2.4 0-1.5-.5-3.2-1.4-5.1-1-1.9-2.4-3.4-4.4-4.4-2-1-4.3-1.5-6.9-1.5-5.6 0-10 2.1-13.4 6.2-2.6 3.1-3.9 6.1-3.9 8.9zM617.3 6.7v-.4c0-.5.2-1.2.6-2 5.2-.9 10.8-2.3 16.7-4.2.3 0 .9-.1 1.6-.1.2.8.4 1.3.4 1.5v21.4l-.1 6.8.1 7.6-.1 6.2c0 .2 0 1.1.1 2.4l5.9-2.2c.6-.2 2.7-.8 6.2-1.9 4.5-.7 7-1.1 7.8-1.1 4.8 0 9.1.8 12.9 2.3 2.3 1 4.7 2.5 7 4.8 2.3 2.2 4 4.6 5.1 7.1 1.9 4.5 2.9 8.5 2.9 11.8 0 5.2-.3 8.8-1 10.8-1.6 4.8-3.6 8.6-6 11.3-2.3 2.8-5.6 5.1-9.8 7.1-4.2 2-8.7 2.9-13.4 2.9-4.4 0-8.5-.8-12.4-2.4s-6.1-2.4-6.5-2.4c-1.5 0-3.4 2-5.7 5.9l-2.1-.1c-.2-3.2-.3-7.1-.3-11.8l.1-10.7-.1-5.5.1-15.6-.1-3 .3-7.4v-6.3l.1-2.6c0-.5 0-2.6-.1-6.2v-4.3c.1-8.3-.2-13.1-1.1-14.4-1.5-2-4.5-3.8-9.1-5.3zM651.4 95c7.3 0 12.8-2 16.6-6.1 3.8-4.1 5.7-10.2 5.7-18.3 0-7.4-2.2-13.4-6.5-18s-9.6-6.9-15.9-6.9c-4.6 0-8.4.7-11.6 2.2-1.9.9-2.9 1.7-3.1 2.5-.2.8-.3 5.9-.3 15.4 0 11.2.2 17.8.7 19.7.8 3 2.3 5.1 4.5 6.4 3.4 2.1 6.7 3.1 9.9 3.1zM746.8 59l-28.8.2h-5.5c-2.2 0-4.5.1-6.7.3-.4 1.4-.6 2.4-.6 2.9l.1.7v.7l-.1 3.5c0 2.9.9 6.5 2.8 10.7 1.8 4.2 4.5 7.5 7.9 9.7s7.7 3.4 12.8 3.6c2.7-.1 4.9-.5 6.5-1 1.6-.5 3.9-1.7 6.9-3.7l5.2-4.2.4 2.9c0 .3 0 .7-.1 1.1-2.2 2.7-4.9 5.1-8.2 7.2-3.3 2.1-6.7 3.6-10.1 4.5-1.6.4-4.3.6-8 .6-3.4 0-6.7-.7-10.1-2.1-4.9-2.1-8.7-5.5-11.5-10.2-2.8-4.7-4.2-10.3-4.2-17 0-2.1.4-4.8 1.2-8.1.8-3.3 2.2-6.8 4.3-10.6 1.4-2.5 3.1-4.6 5.1-6.2 2.9-2.3 5.4-3.9 7.5-4.8 3.1-1.3 6.7-1.9 10.8-1.9 4.5 0 8.1.8 10.9 2.4 3.8 2.2 6.7 4.9 8.6 8.3 1.9 3.4 2.8 6.5 2.8 9.3V59zm-40.1-2.6h3.4c2.4 0 9.7-.4 21.8-1.1 1.9-.1 3.1-.3 3.5-.6.9-.9 1.3-1.7 1.3-2.4 0-1.5-.5-3.2-1.4-5.1-1-1.9-2.4-3.4-4.4-4.4-2-1-4.3-1.5-6.9-1.5-5.6 0-10 2.1-13.4 6.2-2.6 3.1-3.9 6.1-3.9 8.9zM754.1 97.1l-.3-.9c0-.3.2-.8.6-1.5l4.2-.9 6-1.1c.5-.2.8-.6 1-1 .3-.6.4-2.5.4-5.5 0-16.2-.1-25.6-.3-28.1-.2-2.5-.6-4.1-1.3-4.8-.7-.7-2.4-1.2-5.2-1.6-1.6-.2-2.9-.5-3.9-.9l.3-2.2c5-2.1 8.4-3.8 10.1-5.3 2.4-2.2 4.4-5 6.1-8.5l2.4.1c.3 2.4.4 7.7.4 15.9l-.1 1.2c0 .3 0 .7.1 1.4 1.8-3.3 4.1-6.3 6.8-9.1l1.7-1.7c.7-.8 1.3-1.4 1.9-1.8 3.4-2 5.8-3 7.5-3 2.1 0 3.8.7 5.2 2.1 1.3 1.4 2 3.1 2 5.2 0 1.6-.5 2.9-1.4 3.8-1.3 1.2-2.8 1.8-4.5 1.8-.8 0-2.3-.4-4.5-1.2-2.2-.8-3.7-1.2-4.5-1.2-1.3 0-2.3.2-2.8.6-1.3 1.1-3 3.2-4.9 6.5-1.5 2.4-2.2 4.7-2.2 6.7l.4 11.9.1 14.2c.1 1.6.3 2.7.6 3.2.2.3.7.7 1.4 1.2 5.2.4 8.2.7 9.2.9.7 0 1.2.1 1.5.1 2.1 0 3.5.3 4.3.9.4.2.6.6.6 1.1 0 .3-.2.7-.6 1.1l-8-.1-3-.1-4.4.1h-7.3l-3.9.2-11.7.3z"/>
  <g>
    <path class="nameplate-color" d="M82.7 196.9h-1.5l-5.9-20.8c-.5-1.7-.9-3.1-1.1-4.2-.2 1.1-.5 2.3-.8 3.7-.4 1.4-2.3 8.5-5.9 21.3h-1.6L58.4 170h2l4.7 17.3c.2.7.4 1.3.5 1.9s.3 1.2.4 1.7l.3 1.5.3 1.5c.3-1.7.9-4.2 1.9-7.6l4.6-16.3h2.1l5.4 18.7c.6 2.2 1.1 3.9 1.3 5.2.2-.9.4-1.8.6-2.8.3-1 2.1-8 5.7-21.2h1.9l-7.4 27zM142.4 196.9h-14.7V170h14.7v1.7h-12.8v10.2h12.1v1.7h-12.1v11.5h12.8v1.8zM181.3 170h7.4c3.3 0 5.8.6 7.3 1.7 1.6 1.1 2.3 2.8 2.3 5.1 0 1.6-.5 2.9-1.4 3.9-1 1-2.3 1.7-4.2 2v.1c2.1.3 3.7 1 4.7 2s1.5 2.5 1.5 4.3c0 2.5-.8 4.4-2.5 5.7-1.6 1.3-4 2-7 2h-8.2V170zm1.9 12h5.9c2.5 0 4.4-.4 5.5-1.3 1.1-.8 1.7-2.2 1.7-3.9s-.6-3.1-1.9-3.9c-1.3-.8-3.2-1.2-5.8-1.2h-5.4V182zm0 1.6v11.6h6.3c5 0 7.5-2 7.5-6.1 0-3.7-2.6-5.5-7.9-5.5h-5.9zM300.8 183.2c0 4.5-1.2 7.9-3.6 10.2-2.4 2.3-5.8 3.5-10.4 3.5h-6.4V170h7.3c4.3 0 7.6 1.1 9.8 3.4 2.2 2.2 3.3 5.5 3.3 9.8zm-2 .1c0-3.9-1-6.8-2.9-8.7-2-1.9-4.8-2.9-8.6-2.9h-5v23.6h4.5c8-.1 12-4.1 12-12zM354.5 196.9h-14.7V170h14.7v1.7h-12.8v10.2h12.1v1.7h-12.1v11.5h12.8v1.8zM409.3 170h2l-10.1 26.9h-1.7l-10-26.9h2l6.8 18.3c1 2.8 1.7 4.8 2.1 6.2.2-.9.7-2.4 1.5-4.3l7.4-20.2zM462.7 196.9H448V170h14.7v1.7h-12.8v10.2H462v1.7h-12.1v11.5h12.8v1.8zM501.6 196.9V170h1.9v25.2h12.8v1.8h-14.7zM576.4 183.4c0 4.3-1.1 7.7-3.2 10.1-2.1 2.5-5.1 3.7-8.8 3.7-3.7 0-6.7-1.2-8.8-3.7-2.1-2.5-3.2-5.9-3.2-10.2 0-4.3 1.1-7.7 3.2-10.1 2.2-2.5 5.1-3.7 8.8-3.7 3.8 0 6.7 1.2 8.8 3.7 2.1 2.5 3.2 5.9 3.2 10.2zm-22 0c0 3.9.9 6.8 2.6 8.9s4.2 3.2 7.4 3.2 5.7-1 7.4-3.1c1.7-2.1 2.6-5.1 2.6-9 0-3.9-.9-6.9-2.6-8.9-1.7-2.1-4.2-3.1-7.4-3.1s-5.7 1-7.4 3.1c-1.8 2.1-2.6 5.1-2.6 8.9zM631.6 177.7c0 2.6-.9 4.6-2.7 6-1.8 1.4-4.3 2.1-7.5 2.1h-4.2v11.1h-1.9V170h6.6c6.5 0 9.7 2.6 9.7 7.7zm-14.3 6.5h3.7c3 0 5.2-.5 6.6-1.5s2-2.6 2-4.9c0-2.1-.6-3.6-1.9-4.6-1.3-1-3.3-1.5-5.9-1.5h-4.5v12.5zM684.9 196.9h-14.7V170h14.7v1.7h-12.8v10.2h12.1v1.7h-12.1v11.5h12.8v1.8zM725.7 185.2v11.7h-1.9V170h6.4c3.3 0 5.8.6 7.4 1.9 1.6 1.2 2.4 3.1 2.4 5.6 0 1.8-.5 3.3-1.4 4.6-1 1.2-2.4 2.1-4.3 2.7l7.3 12.3h-2.2l-6.9-11.7h-6.8zm0-1.6h5.1c2.3 0 4-.5 5.3-1.5 1.3-1 1.9-2.5 1.9-4.5s-.6-3.5-1.8-4.5c-1.2-.9-3.2-1.4-6-1.4h-4.5v11.9z"/>
  </g>
</svg>
